<?xml version="1.0" standalone="no"?><!DOCTYPE svg PUBLIC "-//W3C//DTD SVG 1.1//EN" "http://www.w3.org/Graphics/SVG/1.1/DTD/svg11.dtd"><svg t="1748825845524" class="icon" viewBox="0 0 1024 1024" version="1.1" xmlns="http://www.w3.org/2000/svg" p-id="6148" id="mx_n_1748825845525" width="64" height="64" xmlns:xlink="http://www.w3.org/1999/xlink"><path d="M735.36 277.76H288.64C159.36 277.76 54.4 382.72 54.4 512c0 129.28 104.96 234.24 234.24 234.24h446.72c129.28 0 234.24-104.96 234.24-234.24 0-129.28-104.96-234.24-234.24-234.24zM911.36 512c0 97.28-79.36 177.28-177.28 177.28H294.4c-97.28 0-177.28-80-177.28-177.28 0-97.92 80-177.28 177.28-177.28h439.68A177.28 177.28 0 0 1 911.36 512z" fill="#1296db" p-id="6149"></path><path d="M426.752 510.72a135.552 135.552 0 1 0-271.04 0 135.552 135.552 0 0 0 271.04 0z" fill="#1296db" p-id="6150"></path></svg>